<?xml version="1.0" standalone="no"?>
<!DOCTYPE svg PUBLIC "-//W3C//DTD SVG 20010904//EN"
 "http://www.w3.org/TR/2001/REC-SVG-20010904/DTD/svg10.dtd">
<svg version="1.0" xmlns="http://www.w3.org/2000/svg"
 width="16.000000pt" height="16.000000pt" viewBox="0 0 16.000000 16.000000"
 preserveAspectRatio="xMidYMid meet">
<metadata>
Created by potrace 1.11, written by Peter Selinger 2001-2013
</metadata>
<g transform="translate(0.000000,16.000000) scale(0.002286,-0.002286)"
fill="#000000" stroke="none">
<path d="M3898 6705 c-2 -2 -39 -6 -83 -9 -141 -11 -297 -35 -439 -67 -50 -11
-100 -22 -111 -24 -56 -12 -308 -90 -393 -122 -382 -142 -693 -313 -1027 -564
-71 -53 -139 -105 -150 -115 -11 -11 -52 -46 -90 -79 -76 -66 -271 -258 -350
-345 -253 -280 -520 -689 -665 -1020 -23 -52 -48 -108 -55 -125 -33 -76 -127
-353 -140 -413 -2 -9 -13 -57 -25 -107 -40 -170 -65 -327 -78 -490 -12 -165
-6 -494 13 -606 2 -13 6 -46 10 -74 3 -27 8 -57 10 -65 2 -8 6 -33 10 -54 8
-59 60 -260 90 -350 171 -519 519 -976 975 -1280 144 -96 243 -150 420 -229
120 -54 385 -139 505 -162 185 -36 257 -46 425 -61 56 -4 336 -5 411 0 56 4
136 12 219 22 675 85 1366 392 1930 859 119 98 158 134 290 265 172 172 244
256 411 478 210 278 415 665 539 1017 47 133 118 398 135 500 31 184 36 231
50 395 6 66 6 358 1 405 -3 22 -8 69 -11 105 -3 36 -7 76 -9 90 -3 14 -7 47
-11 74 -3 27 -8 52 -10 55 -1 3 -6 24 -9 46 -4 22 -9 48 -12 57 -3 9 -6 25 -8
35 -29 144 -102 351 -188 533 -45 94 -143 267 -159 280 -3 3 -12 16 -19 30 -7
14 -49 72 -94 129 -317 407 -752 703 -1271 865 -63 19 -239 63 -285 71 -19 3
-60 10 -90 15 -30 5 -80 12 -110 15 -30 3 -71 8 -90 11 -35 6 -457 14 -462 9z
m255 -789 c48 -4 96 -9 105 -10 30 -6 86 -15 122 -21 217 -36 532 -161 729
-290 288 -187 517 -449 665 -757 68 -144 143 -373 160 -493 3 -22 8 -51 11
-65 20 -99 28 -466 12 -605 -10 -85 -32 -208 -53 -294 -9 -36 -17 -72 -19 -80
-18 -90 -126 -373 -195 -513 -121 -242 -305 -515 -455 -674 -132 -140 -174
-182 -261 -260 -267 -239 -572 -427 -901 -557 -77 -31 -291 -100 -343 -112 -8
-2 -35 -8 -60 -14 -25 -5 -61 -13 -80 -16 -19 -3 -60 -10 -90 -15 -129 -22
-244 -31 -400 -31 -134 1 -212 5 -280 16 -19 3 -51 7 -70 9 -64 8 -104 17
-225 48 -509 131 -936 447 -1189 878 -116 198 -182 365 -230 581 -24 109 -30
151 -41 264 -7 66 -7 330 -1 375 3 19 8 62 11 95 13 135 63 353 117 510 145
429 394 822 733 1160 280 280 624 514 961 655 54 23 108 45 119 50 83 36 354
112 445 125 24 4 47 8 50 10 3 2 26 6 50 9 25 3 55 8 67 10 13 3 71 8 130 12
60 3 109 7 110 8 5 4 216 -2 296 -8z"/>
<path d="M2628 4704 c-2 -1 -34 -5 -73 -9 -38 -4 -72 -9 -75 -10 -3 -2 -26 -6
-50 -10 -57 -8 -132 -29 -240 -68 -358 -127 -678 -406 -860 -750 -42 -80 -106
-238 -114 -282 -3 -14 -7 -28 -10 -33 -3 -5 -8 -24 -11 -43 -3 -19 -10 -56
-15 -84 -5 -27 -11 -77 -12 -110 l-3 -60 35 -2 c160 -7 299 -13 437 -19 89 -3
170 -7 180 -8 14 -1 19 9 24 49 11 80 15 96 48 180 80 207 261 396 473 494
118 54 190 71 305 72 234 2 399 -101 472 -297 25 -65 31 -107 36 -254 5 -139
11 -190 30 -275 46 -198 159 -408 297 -552 169 -177 404 -294 658 -329 142
-19 361 -2 533 41 440 111 840 445 1037 867 41 88 95 243 104 299 3 19 10 57
15 84 5 28 11 75 12 105 3 52 2 55 -21 56 -14 1 -92 5 -175 8 -82 4 -199 9
-260 12 -234 12 -215 14 -215 -15 -1 -84 -72 -278 -138 -373 -94 -135 -263
-278 -392 -332 -25 -10 -54 -22 -65 -27 -100 -44 -307 -54 -412 -21 -85 27
-139 60 -199 124 -89 94 -120 179 -129 362 -12 240 -24 317 -71 448 -145 411
-493 698 -914 754 -54 7 -237 13 -242 8z"/>
</g>
</svg>